# xmcd
#
# Track frame offsets:
#	150
#	18622
#	38547
#	55589
#	76507
#	94430
#	111868
#	125146
#	144258
#	162700
#	182635
#	199683
#	220678
#	238525
#	255910
#	269175
#	299695
#
# Disc length: 4008 seconds
#
# Revision: 0
# Processed by: cddbd v1.5PL3 Copyright (c) Steve Scherf et al.
# Submitted via: audiograbber 1.83.01
#
DISCID=f60fa611
DTITLE=Various Artist - Karaoke SC1008
DYEAR=1900
DGENRE=
TTITLE0=Phil Vassar - Just Another Day In Paradise
TTITLE1=Soggy Bottom Boys - I Am A Man Of Constant Sorrow
TTITLE2=Brooks And Dunn - Ain't Nothing 'bout You
TTITLE3=Tim Mcgraw - Angry All The Time
TTITLE4=Blake Shelton - Austin
TTITLE5=Kenny Chesney - Don't Happen Twice
TTITLE6=Toby Keith - I'm Just Talkin' About Tonight
TTITLE7=Keith Urban - But For The Grace Of God
TTITLE8=Phil Vassar (Vocal) - Just Another Day In Paradise
TTITLE9=Soggy Bottom Boys (Vocal) - I Am A Man Of Constant Sorrow
TTITLE10=Brooks And Dunn (Vocal) - Ain't Nothing 'bout You
TTITLE11=Tim Mcgraw (Vocal) - Angry All The Time
TTITLE12=Blake Shelton (Vocal) - Austin
TTITLE13=Kenny Chesney (Vocal) - Don't Happen Twice
TTITLE14=Toby Keith (Vocal) - I'm Just Talkin' About Tonight
TTITLE15=Keith Urban (Vocal) - But For The Grace Of God
TTITLE16=Data Track - DATA TRACK
EXTD=
EXTT0=
EXTT1=
EXTT2=
EXTT3=
EXTT4=
EXTT5=
EXTT6=
EXTT7=
EXTT8=
EXTT9=
EXTT10=
EXTT11=
EXTT12=
EXTT13=
EXTT14=
EXTT15=
EXTT16=
PLAYORDER=
